<?xml version="1.0" standalone="no"?>
<!DOCTYPE svg PUBLIC "-//W3C//DTD SVG 20010904//EN"
 "http://www.w3.org/TR/2001/REC-SVG-20010904/DTD/svg10.dtd">
<svg version="1.0" xmlns="http://www.w3.org/2000/svg"
 width="1080.000000pt" height="1310.000000pt" viewBox="0 0 1080.000000 1310.000000"
 preserveAspectRatio="xMidYMid meet">

<g transform="translate(0.000000,1310.000000) scale(0.100000,-0.100000)"
fill="#000000" stroke="none">
<path d="M0 6550 l0 -6550 5400 0 5400 0 0 6550 0 6550 -5400 0 -5400 0 0
-6550z m6750 3592 c0 -76 -4 -163 -9 -193 -5 -30 -12 -101 -16 -159 l-6 -105
28 30 c63 67 83 98 83 125 0 17 -7 33 -17 39 -15 8 -16 18 -7 105 11 100 21
123 48 113 11 -4 16 -19 16 -46 0 -22 5 -62 10 -89 7 -30 7 -57 2 -73 -5 -13
-6 -33 -2 -44 64 -165 67 -341 9 -469 -31 -68 -32 -67 94 -64 l112 3 3 30 c6
72 16 81 22 20 l5 -60 83 -3 c70 -2 82 -5 82 -20 0 -10 -5 -23 -12 -30 -9 -9
-7 -13 5 -18 21 -8 22 -22 2 -44 -23 -26 -28 -143 -20 -443 6 -235 9 -269 24
-274 65 -23 70 -124 6 -135 -18 -3 -20 -12 -23 -96 -1 -51 2 -100 7 -110 9
-14 10 -13 11 11 0 22 4 28 18 25 12 -2 27 -32 49 -98 38 -111 40 -151 13
-203 -23 -43 -25 -74 -15 -199 8 -86 7 -88 -14 -88 -27 0 -51 22 -51 47 -1 15
-2 15 -9 3 -10 -17 -25 -322 -21 -420 2 -36 2 -74 0 -85 -7 -55 0 -219 9 -224
6 -4 7 -19 3 -36 -10 -42 -8 -166 3 -190 7 -15 10 -5 16 45 4 36 12 110 19
165 7 58 10 143 6 202 -6 106 8 207 28 200 6 -2 13 -17 16 -33 7 -39 18 -20
36 63 7 35 27 87 44 115 17 27 42 85 56 128 13 44 30 82 36 86 19 12 3 -113
-27 -206 -27 -86 -94 -204 -121 -214 -9 -3 -13 -17 -12 -38 1 -18 -4 -73 -10
-123 -7 -49 -19 -186 -27 -304 -12 -190 -16 -216 -35 -235 -19 -21 -20 -34
-20 -289 0 -262 0 -267 19 -257 29 15 39 13 52 -12 18 -34 13 -98 -10 -122
-16 -16 -23 -18 -33 -8 -27 27 -31 9 -26 -118 3 -88 1 -146 -8 -178 -9 -34
-13 -40 -13 -20 -1 37 -10 40 -60 14 -46 -22 -54 -32 -71 -78 -11 -31 -54 -63
-72 -54 -7 3 -20 11 -28 17 -12 8 -36 1 -105 -32 -49 -23 -98 -49 -109 -58
-10 -9 -20 -15 -22 -14 -2 2 -28 -13 -58 -32 -58 -37 -71 -41 -81 -25 -8 12
16 50 32 50 7 0 13 5 13 10 0 12 -37 14 -42 3 -1 -5 -19 -16 -38 -26 -19 -9
-57 -30 -85 -45 -27 -16 -81 -45 -118 -66 -37 -21 -71 -35 -74 -32 -11 11 79
95 142 134 33 19 62 38 65 41 3 3 39 23 80 45 41 21 107 55 145 76 228 122
305 154 339 144 18 -6 19 -5 9 8 -11 12 -8 17 12 28 26 14 34 40 12 40 -7 0
-22 -7 -33 -15 -18 -12 -263 -139 -557 -289 -41 -21 -61 -26 -66 -18 -4 7 -20
-5 -42 -33 -33 -41 -174 -165 -187 -165 -5 0 141 156 182 194 21 19 21 19 -19
13 -22 -4 -48 -7 -57 -7 -10 0 -18 -6 -18 -14 0 -17 -63 -48 -93 -45 -53 5
-115 -19 -116 -45 0 -5 -17 -17 -38 -27 l-38 -18 70 6 c86 7 78 -5 -23 -37
-51 -16 -72 -27 -68 -36 3 -8 -4 -18 -14 -24 -39 -21 -19 -30 63 -30 l82 0
-25 -19 c-27 -21 -103 -39 -206 -47 -54 -5 -73 -11 -89 -28 -19 -22 -83 -59
-230 -137 -130 -68 -154 -82 -160 -97 -9 -23 5 -35 23 -19 73 61 476 261 544
270 27 4 60 10 74 13 21 5 25 4 19 -6 -6 -10 -3 -12 13 -8 22 6 30 -6 13 -17
-5 -3 -47 -10 -93 -17 -46 -6 -92 -18 -103 -26 -11 -8 -13 -12 -5 -9 21 7 54
-19 47 -37 -3 -8 -34 -29 -68 -47 -54 -29 -59 -35 -43 -44 10 -5 33 -24 51
-41 63 -61 34 -156 -55 -182 -49 -15 -80 -5 -134 43 -54 49 -75 46 -147 -25
-79 -78 -111 -94 -173 -87 -39 5 -61 1 -105 -19 -65 -28 -80 -24 -38 11 17 13
27 27 23 31 -4 4 0 12 9 19 15 11 13 16 -19 49 -19 20 -39 36 -44 36 -5 0 -20
12 -33 26 -13 14 -104 64 -203 112 -98 47 -178 90 -178 94 0 8 56 36 142 71
l36 15 121 -74 c67 -41 126 -74 131 -74 6 0 10 37 10 86 0 63 3 85 12 82 9 -3
11 -29 9 -90 -2 -69 1 -88 14 -102 9 -9 21 -14 26 -11 5 4 9 58 9 121 0 63 3
114 6 114 3 0 14 -5 25 -10 17 -10 19 -22 19 -115 0 -58 3 -105 8 -105 18 0
42 69 44 130 2 37 7 64 13 62 6 -1 9 -32 8 -72 -1 -38 2 -72 7 -75 5 -3 51 19
102 48 164 95 188 107 211 108 l22 0 -22 9 c-13 5 -23 14 -23 19 0 8 64 98 79
111 3 3 22 27 41 55 19 27 41 56 50 65 8 8 24 28 35 43 18 25 31 29 125 43 58
8 148 24 200 35 139 30 178 33 194 20 12 -10 17 -8 26 9 8 15 184 110 205 110
2 0 65 29 271 126 25 12 36 28 54 77 l23 62 -6 490 c-3 270 -9 499 -13 509 -6
15 -10 11 -25 -27 -31 -78 -135 -221 -215 -296 -81 -75 -261 -188 -366 -230
-71 -29 -178 -43 -185 -25 -2 6 11 45 30 85 57 125 94 212 106 250 7 20 19 43
29 51 34 30 161 98 182 98 12 0 34 6 48 14 34 18 98 46 106 46 3 0 30 11 60
25 30 14 58 25 63 25 4 0 19 9 33 20 26 21 50 26 50 11 0 -5 -8 -11 -17 -14
-10 -3 -34 -15 -53 -25 -19 -11 -56 -29 -82 -41 -38 -17 -45 -24 -41 -41 3
-12 11 -19 19 -16 20 8 7 -18 -15 -29 -10 -6 -44 -29 -74 -52 -31 -24 -61 -43
-67 -43 -22 0 -140 -94 -140 -112 0 -18 28 -6 64 28 21 20 53 42 71 50 19 7
50 25 71 39 20 14 41 25 45 25 24 0 2 -25 -61 -71 -38 -28 -70 -53 -70 -56 0
-2 14 -2 30 2 17 4 30 4 30 1 0 -10 -89 -66 -102 -64 -7 2 -14 -7 -16 -19 -4
-29 3 -29 53 1 24 15 44 21 50 16 6 -5 24 3 45 21 19 17 42 28 51 26 18 -5
119 91 119 112 0 6 4 11 8 11 9 0 127 205 137 238 5 19 3 22 -21 22 -36 0 -19
19 19 22 l27 2 0 128 c0 70 -3 128 -7 128 -5 -1 -26 -24 -47 -53 -74 -99 -185
-177 -346 -244 -234 -97 -324 -132 -332 -127 -11 7 -10 47 1 59 5 6 14 28 21
50 7 22 22 60 33 85 11 25 32 72 46 105 33 77 59 109 105 131 20 10 36 21 36
26 0 4 8 8 18 8 10 0 44 15 75 34 57 35 89 52 162 89 39 19 185 114 214 139
11 9 12 36 7 142 -4 72 -9 133 -12 135 -5 6 -95 -89 -158 -166 -101 -125 -185
-216 -224 -243 -33 -22 -27 -30 21 -30 l42 -1 -30 -24 c-49 -40 -112 -28 -72
14 6 7 -8 1 -33 -14 -25 -16 -47 -32 -50 -36 -11 -16 -165 -82 -195 -83 -24
-1 -31 3 -33 23 -2 13 5 42 17 65 41 83 123 303 145 391 16 61 46 97 91 111
27 9 229 142 331 218 44 34 116 87 160 118 78 57 79 57 87 34 4 -13 1 -63 -8
-117 -9 -52 -15 -101 -15 -109 0 -8 5 -80 9 -160 5 -80 9 -160 10 -177 1 -21
6 -33 15 -33 19 0 28 122 27 348 -1 226 14 650 24 679 15 45 25 9 27 -95 l1
-107 7 105 c4 58 8 140 9 182 1 72 0 77 -21 80 -21 3 -24 10 -30 73 -3 39 -7
153 -8 255 -2 192 -13 246 -45 234 -11 -5 -12 -10 -2 -24 8 -15 8 -40 -1 -107
-14 -98 -75 -238 -160 -368 -85 -130 -260 -285 -580 -517 -100 -73 -122 -65
-97 34 19 74 30 135 49 274 8 56 19 110 25 121 12 23 259 218 391 308 47 32
99 70 117 84 17 14 60 46 95 71 75 52 66 58 -55 36 -107 -20 -114 -20 -122 4
-3 11 -10 20 -14 20 -4 0 -55 -60 -114 -132 -114 -144 -150 -180 -242 -250
-33 -25 -94 -76 -135 -112 -111 -99 -113 -97 -123 94 -4 85 -9 184 -11 219 -3
54 0 70 18 95 11 17 24 33 29 34 4 2 7 8 7 13 0 5 -97 9 -227 9 -126 1 -291 5
-368 10 -103 6 -142 5 -147 -3 -4 -7 -8 -166 -8 -354 l0 -342 -25 -19 c-14
-11 -25 -27 -25 -36 0 -9 -4 -16 -10 -16 -6 0 -10 131 -10 374 0 320 -2 375
-15 386 -13 11 -15 -34 -15 -394 0 -264 -3 -406 -10 -406 -6 0 -10 112 -10
316 l0 317 -27 -29 c-22 -24 -27 -37 -25 -75 1 -34 -2 -49 -13 -53 -20 -7 -35
24 -35 73 0 23 -5 41 -10 41 -17 0 -31 50 -25 84 4 17 15 42 25 56 16 21 21
23 44 12 14 -6 35 -26 46 -44 l20 -33 0 67 c0 37 -4 69 -9 72 -13 8 -315 17
-565 16 l-209 0 -33 34 -34 35 48 6 c79 10 80 13 5 14 -68 1 -73 3 -105 36
-18 20 -33 41 -33 48 0 16 68 25 203 26 61 1 112 3 112 6 0 3 -16 31 -35 61
-37 58 -47 114 -20 114 32 0 100 -155 75 -170 -26 -16 120 -22 344 -15 127 4
236 11 242 16 31 25 99 27 144 4 20 -10 76 -18 167 -24 l138 -8 -147 -2 c-85
0 -149 -5 -153 -11 -4 -7 114 -10 347 -9 300 1 346 3 308 13 l-45 13 48 4 c26
2 51 1 55 -3 11 -11 130 -17 173 -9 30 5 54 27 157 143 l122 136 21 87 c11 49
18 99 14 113 -4 16 0 31 11 43 21 23 33 113 40 297 5 112 9 142 20 142 11 0
14 -27 14 -138z m-3194 -381 c21 -47 23 -59 13 -83 -9 -22 -8 -55 5 -151 9
-67 17 -138 18 -157 l3 -35 165 -8 c91 -4 177 -6 192 -4 20 2 29 -2 37 -20 15
-33 16 -33 -31 -34 -75 -1 -91 -17 -18 -19 73 -1 106 -17 97 -50 -4 -15 0 -20
14 -20 17 0 57 -45 48 -55 -3 -2 -58 -7 -124 -10 l-118 -6 -39 38 c-21 20 -38
43 -38 51 0 8 -6 12 -15 9 -8 -4 -24 6 -39 23 -32 38 -51 38 -65 -1 -14 -40
-14 -109 -1 -109 6 0 10 -14 10 -31 0 -16 4 -28 9 -25 5 4 7 -3 4 -14 -3 -11
-1 -26 4 -33 6 -6 13 -24 17 -39 3 -16 13 -28 22 -28 11 0 14 -6 9 -22 -6 -17
-4 -20 10 -14 13 5 16 2 11 -11 -4 -9 -3 -19 2 -22 4 -3 6 -81 3 -173 -5 -138
-4 -169 8 -173 8 -3 11 -8 8 -11 -3 -3 -19 2 -36 12 -37 22 -60 9 -42 -22 6
-11 20 -48 30 -82 18 -59 19 -78 9 -230 -5 -92 -12 -169 -14 -171 -2 -3 -10 1
-16 7 -36 36 -37 -18 -3 -108 23 -61 25 -78 27 -301 l3 -235 -38 20 c-54 29
-66 13 -43 -59 9 -30 22 -55 27 -55 6 0 9 -8 7 -17 -2 -10 9 -30 24 -44 15
-15 24 -29 21 -33 -4 -3 3 -15 15 -26 29 -27 28 -40 -3 -40 -14 0 -25 -4 -25
-10 0 -5 17 -10 38 -10 28 0 44 -7 65 -29 33 -36 24 -44 -46 -39 l-52 3 -1
-70 c-1 -38 -4 -136 -7 -217 -6 -146 -9 -471 -7 -788 l1 -165 96 -55 c53 -30
101 -59 107 -65 7 -5 19 -14 29 -20 9 -5 67 -44 129 -87 62 -42 167 -110 233
-152 181 -113 203 -130 182 -134 -9 -2 -31 5 -47 15 -201 126 -381 245 -492
326 -28 20 -59 37 -67 37 -14 0 -14 -1 -1 -10 8 -5 10 -10 4 -10 -9 0 -79 45
-104 67 -2 2 2 9 10 14 11 8 9 9 -9 4 -15 -5 -26 -2 -31 5 -9 14 -40 6 -40
-10 0 -5 17 -26 38 -46 l37 -37 -32 19 c-25 14 -36 15 -44 7 -15 -15 15 -43
92 -87 30 -17 75 -43 99 -59 91 -56 266 -160 297 -177 18 -10 29 -20 26 -24
-10 -9 58 -76 70 -69 6 3 7 2 4 -4 -6 -10 20 -36 44 -41 7 -2 16 -8 20 -13 3
-5 14 -6 24 -3 14 6 17 4 12 -8 -6 -17 28 -28 89 -28 19 0 42 -4 52 -9 9 -4
33 -16 52 -25 l35 -17 -22 19 c-20 17 -21 21 -8 32 9 7 14 20 13 29 -2 12 4
15 28 14 24 -2 33 3 42 22 21 44 30 69 36 97 4 15 12 32 19 38 6 5 82 45 167
89 85 43 184 95 220 115 36 19 70 36 77 36 6 0 67 27 135 59 128 62 152 65
129 14 -23 -50 -27 -57 -56 -108 -19 -35 -27 -63 -26 -91 1 -26 -5 -46 -14
-54 -13 -11 -15 -8 -15 20 0 28 -2 31 -15 20 -9 -7 -13 -21 -10 -31 4 -11 2
-19 -3 -19 -6 0 -12 5 -14 12 -3 7 -72 -22 -182 -75 -97 -48 -179 -87 -181
-87 -3 0 -44 -19 -92 -41 -49 -23 -98 -45 -110 -50 -16 -6 -21 -14 -16 -25 4
-10 0 -20 -10 -26 -10 -5 -17 -16 -17 -24 0 -13 3 -13 28 0 75 41 442 220 493
241 78 31 76 15 -3 -24 -89 -44 -171 -89 -185 -101 -7 -5 -20 -10 -30 -11 -16
0 -16 -1 2 -9 20 -9 7 -15 -24 -11 -7 2 -10 -2 -6 -9 5 -9 1 -10 -16 -5 -18 5
-20 4 -9 -4 13 -9 12 -12 -5 -25 -11 -9 -32 -21 -47 -28 -15 -7 -24 -16 -21
-21 3 -5 -1 -13 -8 -18 -10 -6 -7 -9 11 -9 14 0 39 9 55 20 39 26 53 26 30 0
-11 -12 -13 -20 -6 -20 9 0 9 -5 1 -20 -8 -15 -7 -21 8 -29 14 -7 29 -4 62 15
24 14 51 23 59 21 12 -3 8 -7 -11 -17 -21 -10 -25 -16 -17 -26 7 -9 -15 -22
-95 -53 -57 -23 -110 -41 -118 -41 -7 0 -56 -23 -108 -50 -52 -28 -119 -62
-147 -77 -33 -17 -53 -34 -53 -44 0 -31 -12 -49 -32 -49 -10 0 -31 -6 -46 -14
-15 -7 -44 -14 -64 -14 -21 -1 -54 -12 -75 -25 -59 -35 -177 -87 -201 -87 -35
0 -26 19 35 77 43 40 54 56 45 62 -8 5 -12 19 -10 32 2 18 10 25 31 27 19 2
27 -1 27 -12 0 -9 4 -16 8 -16 7 0 74 53 110 88 8 7 30 25 50 40 21 15 39 29
42 32 14 14 130 109 163 135 27 20 34 30 25 36 -7 5 -19 2 -28 -6 -13 -12 -19
-11 -40 5 -14 11 -28 20 -31 20 -3 0 -39 18 -79 40 -40 22 -75 39 -77 37 -5
-5 62 -49 117 -77 62 -32 75 -47 59 -66 -19 -23 -54 -10 -126 47 -51 40 -67
48 -91 43 -23 -5 -32 -1 -45 20 -9 14 -17 31 -17 39 0 11 -81 77 -96 77 -3 0
-21 12 -40 26 -19 15 -34 22 -34 16 0 -6 -16 -14 -35 -18 -21 -4 -40 -16 -51
-33 -26 -40 -66 -81 -81 -81 -17 0 -7 45 18 81 l19 26 -46 18 -46 18 -22 -25
c-35 -40 -73 -61 -101 -54 -20 5 -25 13 -25 39 0 38 11 55 76 121 l49 48 -28
24 c-35 30 -47 30 -47 1 0 -30 -33 -65 -68 -73 -15 -4 -46 -17 -70 -31 -24
-14 -46 -22 -49 -19 -3 3 4 20 15 38 15 25 19 44 15 73 -4 33 -1 44 19 62 12
11 32 23 43 25 16 3 13 8 -20 25 -118 63 -107 51 -103 115 3 56 2 58 -23 58
-34 0 -49 17 -49 56 0 30 29 80 57 97 18 11 3 77 -54 243 -25 72 -28 144 -7
151 14 5 34 -49 34 -91 0 -42 10 -76 22 -76 10 0 7 127 -10 435 -7 126 -12
158 -32 200 -21 43 -25 71 -31 205 -6 129 -13 179 -43 299 -37 148 -46 236
-23 229 6 -3 24 -51 38 -109 15 -57 38 -138 52 -179 l25 -75 3 745 c5 1085 2
1365 -12 1438 -11 52 -10 76 1 135 23 112 17 207 -14 261 -25 43 -34 104 -20
140 10 25 32 2 60 -63z m1033 55 c20 -21 22 -32 17 -68 -6 -38 -3 -49 23 -83
36 -48 38 -69 9 -89 -29 -21 -33 -20 -58 6 -17 18 -19 30 -14 68 l6 46 -38 9
c-34 9 -40 15 -48 47 -19 75 52 119 103 64z m2659 -138 c15 -15 15 -50 1 -81
-7 -16 -8 -40 -1 -77 6 -32 6 -63 1 -77 -8 -20 -12 -22 -30 -13 -18 10 -20 19
-18 93 1 45 -1 92 -5 104 -14 43 24 79 52 51z m-3388 -64 c0 -8 -5 -12 -10 -9
-6 4 -8 11 -5 16 9 14 15 11 15 -7z m47 -146 c-3 -8 -6 -5 -6 6 -1 11 2 17 5
13 3 -3 4 -12 1 -19z m33 -51 c0 -5 -4 -5 -10 -2 -5 3 -10 14 -10 23 0 15 2
15 10 2 5 -8 10 -19 10 -23z m39 -72 c0 -5 -6 -1 -14 9 -8 11 -15 24 -15 30 0
5 7 1 15 -10 8 -10 14 -23 14 -29z m101 3 c0 -6 -6 -5 -15 2 -8 7 -15 14 -15
16 0 2 7 1 15 -2 8 -4 15 -11 15 -16z m2240 2 c0 -16 -27 -23 -57 -15 -21 5
-24 8 -12 16 19 12 69 11 69 -1z m-2162 -195 c-3 -3 -9 2 -12 12 -6 14 -5 15
5 6 7 -7 10 -15 7 -18z m-262 -82 c-7 -7 -26 7 -26 19 0 6 6 6 15 -2 9 -7 13
-15 11 -17z m1659 -3 c17 -19 17 -22 3 -36 -20 -20 -58 -10 -58 15 0 17 18 41
30 41 4 0 15 -9 25 -20z m539 -152 c15 -119 16 -196 6 -290 -15 -134 -51 -204
-176 -343 -82 -91 -269 -271 -350 -339 -69 -57 -84 -30 -83 150 1 77 1 159 1
183 -1 50 17 86 84 166 34 41 43 60 47 105 8 74 22 149 30 156 3 4 13 4 22 1
11 -5 15 -21 15 -62 0 -30 2 -55 5 -55 2 0 86 83 187 185 101 101 188 185 195
185 6 0 14 -19 17 -42z m1016 -163 c0 -135 -1 -145 -20 -155 -11 -6 -24 -9
-29 -6 -8 5 -7 97 3 206 5 49 24 100 38 100 4 0 8 -65 8 -145z m430 135 c0
-15 -41 -133 -51 -145 -4 -6 -18 -47 -29 -90 -22 -80 -54 -145 -71 -145 -15 0
-10 62 10 115 31 83 103 249 113 263 12 14 28 16 28 2z m-1686 -46 c20 -8 21
-48 1 -64 -23 -19 -55 -3 -55 29 0 40 15 50 54 35z m-296 -44 c17 -28 -1 -60
-33 -60 -41 0 -53 49 -18 77 18 14 35 9 51 -17z m-911 -22 c-3 -7 -5 -2 -5 12
0 14 2 19 5 13 2 -7 2 -19 0 -25z m-622 12 c-3 -5 -12 -10 -18 -10 -7 0 -6 4
3 10 19 12 23 12 15 0z m1233 -117 c-5 -25 -28 -28 -28 -4 0 12 6 21 16 21 9
0 14 -7 12 -17z m1928 -68 c7 -16 -34 -147 -71 -231 -34 -77 -142 -246 -179
-279 -19 -16 -74 -64 -122 -105 -49 -41 -98 -83 -109 -93 -20 -18 -44 -35
-205 -139 -105 -68 -124 -78 -148 -78 -36 0 -43 23 -21 64 32 61 100 276 106
339 l6 58 101 70 c207 143 611 408 624 409 7 0 15 -7 18 -15z m-2742 -17 c-4
-7 -7 -27 -6 -45 2 -18 -2 -33 -8 -33 -11 0 -14 73 -3 83 11 12 25 8 17 -5z
m486 -28 c0 -5 -2 -10 -4 -10 -3 0 -8 5 -11 10 -3 6 -1 10 4 10 6 0 11 -4 11
-10z m1346 -46 c19 -74 -37 -311 -102 -434 -39 -73 -127 -180 -194 -235 -25
-21 -83 -75 -130 -121 -137 -134 -242 -211 -252 -186 -6 14 9 298 18 329 10
35 24 52 228 267 211 223 396 406 412 406 7 0 17 -12 20 -26z m-1829 -186 c-2
-18 -4 -4 -4 32 0 36 2 50 4 33 2 -18 2 -48 0 -65z m2663 -134 c0 -78 -1 -81
-33 -112 -18 -18 -36 -29 -40 -26 -4 4 -7 30 -7 58 0 38 8 68 32 116 19 37 36
61 40 55 4 -5 8 -46 8 -91z m-1675 59 c5 -10 10 -80 13 -156 4 -129 2 -150
-25 -251 -3 -11 -54 -70 -113 -132 -60 -62 -152 -168 -206 -236 -106 -132
-182 -218 -194 -218 -12 0 -2 338 11 385 33 122 56 162 166 294 75 90 314 331
329 331 7 0 15 -8 19 -17z m926 -185 c5 -71 -10 -154 -40 -223 -5 -11 -19 -45
-30 -75 -59 -150 -166 -270 -356 -399 -58 -40 -158 -113 -221 -162 -72 -57
-121 -88 -130 -85 -18 7 -15 53 9 156 26 107 38 143 62 185 34 58 242 256 399
379 28 22 87 72 131 111 134 120 174 145 176 113z m-3023 -75 c5 -10 12 -44
16 -75 3 -31 20 -92 36 -135 57 -146 33 -265 -38 -190 -43 45 -53 90 -50 220
1 67 -1 139 -6 160 -8 34 -7 37 12 37 12 0 25 -8 30 -17z m419 -195 c-3 -8 -6
-5 -6 6 -1 11 2 17 5 13 3 -3 4 -12 1 -19z m1734 -62 c5 -6 9 -40 9 -77 0 -37
5 -71 10 -74 18 -11 12 -137 -9 -170 -62 -98 -574 -645 -603 -645 -18 0 -19 8
-16 163 l3 164 43 56 c68 91 335 398 391 450 47 44 51 52 52 95 1 44 2 46 12
20 6 -16 14 -28 18 -28 10 0 20 46 13 63 -3 8 3 22 12 32 17 16 18 16 28 -6
10 -23 10 -23 15 11 l5 35 4 -40 c2 -22 8 -44 13 -49z m899 -156 c0 -6 -11
-38 -25 -71 -13 -34 -27 -77 -31 -95 -3 -19 -10 -37 -15 -40 -5 -3 -9 -16 -9
-30 0 -13 -4 -24 -9 -24 -5 0 -12 -8 -14 -17 -2 -10 -2 -2 0 17 3 19 8 40 12
45 9 13 28 71 36 113 7 34 -3 41 -27 20 -20 -19 -97 -71 -151 -102 -34 -19
-47 -33 -45 -46 2 -11 -15 -34 -45 -60 -27 -24 -44 -46 -38 -49 6 -4 -10 -22
-34 -41 -24 -19 -44 -41 -45 -47 0 -7 -4 -13 -10 -13 -5 0 -10 -5 -10 -11 0
-6 19 6 42 25 45 39 61 45 52 21 -4 -8 -9 -15 -13 -15 -3 0 -19 -16 -35 -36
-29 -37 -29 -37 -5 -31 50 13 59 -11 23 -60 -15 -21 -15 -23 0 -23 19 0 21
-11 4 -28 -15 -15 -3 -16 23 -2 11 6 19 7 19 2 0 -13 -169 -127 -255 -173 -38
-20 -71 -43 -74 -50 -3 -12 -1 -11 13 0 9 8 19 11 23 7 7 -7 -16 -26 -64 -53
-47 -25 -55 -12 -42 67 11 66 54 220 71 254 13 25 1 34 -52 38 l-45 3 25 23
c16 15 36 22 62 22 21 0 38 5 38 10 0 6 -9 10 -20 10 -28 0 -25 17 9 51 22 22
39 29 67 29 22 0 56 11 83 26 99 57 394 259 439 300 46 42 72 54 72 34z m-874
-325 c-4 -22 -10 -67 -15 -100 -13 -96 -32 -143 -100 -250 -61 -99 -185 -236
-331 -371 -25 -23 -78 -76 -119 -118 -41 -42 -77 -76 -81 -76 -11 0 -17 20
-25 83 -10 79 16 184 56 232 9 11 34 45 56 76 21 32 85 110 143 174 58 64 115
132 127 150 12 18 33 42 47 53 14 11 26 24 26 29 0 5 28 38 61 73 34 36 69 74
78 86 23 29 43 34 64 15 15 -12 17 -24 13 -56z m-1411 -4 c3 -5 93 -10 203
-10 192 -1 197 -2 212 -23 8 -13 23 -31 33 -41 10 -10 15 -22 12 -27 -4 -6
-80 -10 -181 -10 -139 0 -174 3 -174 13 0 8 -20 24 -45 37 -25 13 -45 26 -45
30 0 4 -19 10 -42 14 -32 5 -39 9 -28 16 19 12 47 13 55 1z m819 -17 c23 -9
20 -25 -10 -57 -19 -21 -33 -27 -48 -23 -11 3 -31 6 -43 6 -20 0 -23 5 -23 40
l0 40 54 0 c30 0 61 -3 70 -6z m1347 -44 c5 0 9 8 10 18 0 9 3 12 5 5 3 -7 2
-19 -3 -27 -7 -12 -11 -12 -27 -1 -11 9 -15 18 -10 27 7 10 9 9 12 -4 2 -10 8
-18 13 -18z m-34 -42 c-3 -7 -5 -2 -5 12 0 14 2 19 5 13 2 -7 2 -19 0 -25z
m333 7 c-7 -8 -19 -15 -26 -15 -8 0 -14 -4 -14 -10 0 -5 -7 -10 -15 -10 -8 0
-15 -4 -15 -9 0 -9 -41 -23 -49 -16 -2 3 13 20 34 40 26 23 49 35 68 35 25 0
28 -2 17 -15z m-430 -10 c0 -10 -76 -55 -93 -55 -17 0 -17 2 -3 15 28 29 96
57 96 40z m-1492 -37 c4 2 17 -7 30 -18 12 -13 29 -20 38 -16 8 3 12 2 9 -4
-9 -14 -56 -19 -206 -22 -109 -2 -135 0 -131 10 3 10 -2 11 -24 5 -16 -4 -51
-8 -79 -8 -49 0 -50 1 -50 30 l0 30 180 3 c104 1 184 7 190 13 6 6 14 4 23 -8
7 -10 16 -17 20 -15z m1595 14 c2 7 8 10 12 6 10 -9 -14 -40 -25 -33 -4 3 -16
-8 -26 -23 -21 -33 -28 -40 -76 -76 -52 -39 -47 -23 10 33 57 57 72 76 72 92
0 9 3 9 14 0 11 -9 15 -9 19 1z m-1395 -15 c13 -15 -8 -47 -30 -47 -15 0 -31
44 -20 55 10 9 39 5 50 -8z m672 -22 c0 -8 -4 -15 -10 -15 -5 0 -10 7 -10 15
0 8 5 15 10 15 6 0 10 -7 10 -15z m-1640 -50 c7 -9 8 -15 2 -15 -5 0 -12 7
-16 15 -3 8 -4 15 -2 15 2 0 9 -7 16 -15z m585 -15 c3 -5 -4 -6 -15 -3 -11 3
-22 9 -25 13 -3 5 4 6 15 3 11 -3 22 -9 25 -13z m1872 -76 c-6 -75 -11 -93
-24 -81 -3 4 -1 24 6 45 7 21 11 48 9 60 -3 23 -5 21 -155 -106 -24 -19 -47
-38 -52 -42 -15 -9 -1 -50 17 -50 8 0 24 7 34 17 10 9 21 13 26 9 4 -4 -10
-22 -31 -39 -20 -18 -37 -39 -37 -48 0 -9 -18 -33 -40 -53 -46 -41 -41 -47 10
-13 47 31 73 41 63 23 -10 -17 -209 -183 -245 -205 -16 -9 -28 -24 -28 -34 0
-10 -15 -24 -37 -34 -21 -10 -53 -30 -72 -46 -32 -28 -111 -67 -133 -67 -12 0
-5 70 11 125 5 16 18 57 27 90 10 33 22 64 26 70 4 5 8 17 8 26 0 10 10 29 23
42 21 23 219 162 342 242 33 22 70 46 81 53 10 7 37 21 59 32 22 11 51 29 65
40 46 37 54 28 47 -56z m-2392 36 c10 -11 16 -20 13 -20 -3 0 -13 9 -23 20
-10 11 -16 20 -13 20 3 0 13 -9 23 -20z m1705 6 c0 -26 -72 -251 -100 -312
-13 -29 -51 -68 -131 -135 -62 -52 -141 -118 -175 -146 -35 -29 -86 -81 -114
-115 -63 -77 -260 -268 -277 -268 -16 0 -19 22 -12 116 6 103 3 99 229 336
408 427 580 583 580 524z m-157 -27 c4 -16 -6 -34 -40 -70 -25 -27 -48 -47
-50 -45 -8 7 69 146 77 141 4 -3 10 -14 13 -26z m562 -14 c-16 -13 -32 -22
-34 -19 -7 6 40 44 54 43 6 0 -3 -11 -20 -24z m-2042 -11 c9 -4 17 -10 17 -15
0 -14 -10 -11 -38 12 -15 12 -20 19 -12 15 8 -3 23 -9 33 -12z m57 -39 c11
-13 10 -14 -4 -9 -9 3 -16 10 -16 15 0 13 6 11 20 -6z m-313 -37 c-3 -7 -5 -2
-5 12 0 14 2 19 5 13 2 -7 2 -19 0 -25z m2544 -56 c-6 -2 -11 -11 -11 -19 0
-8 -12 -38 -26 -67 -15 -28 -33 -64 -42 -81 -13 -26 -67 -85 -77 -85 -2 0 -21
-11 -41 -25 -34 -23 -92 -35 -80 -17 3 5 34 23 70 41 36 19 75 45 88 60 23 26
98 170 114 221 l8 25 4 -25 c2 -13 -1 -26 -7 -28z m579 -142 c0 -5 -5 -10 -11
-10 -5 0 -7 5 -4 10 3 6 8 10 11 10 2 0 4 -4 4 -10z m-3050 -46 c0 -8 -4 -12
-10 -9 -5 3 -10 10 -10 16 0 5 5 9 10 9 6 0 10 -7 10 -16z m3618 -44 c-15 -24
-19 -21 -11 8 3 12 9 19 14 16 5 -3 3 -14 -3 -24z m-1949 -51 c-11 -21 -105
-89 -113 -82 -15 15 -4 53 20 70 14 10 40 30 57 45 32 27 32 27 38 5 3 -12 2
-29 -2 -38z m111 5 c0 -11 -92 -279 -100 -289 -16 -22 -18 -61 -4 -79 18 -26
18 -32 -6 -56 -23 -23 -7 -26 30 -5 14 8 28 14 33 15 10 0 9 -34 -2 -62 -32
-83 -49 -118 -77 -158 -39 -57 -54 -97 -21 -57 30 36 37 34 37 -12 0 -31 -6
-44 -27 -61 -29 -23 -43 -14 -43 28 l0 23 -30 -21 c-23 -16 -28 -25 -20 -35
16 -19 1 -43 -32 -50 -39 -9 -42 -3 -17 24 24 25 23 25 -66 -4 -33 -11 -61
-23 -63 -27 -2 -5 -10 -8 -18 -8 -15 0 -148 -68 -293 -150 -49 -28 -94 -50
-101 -50 -27 0 6 102 57 176 21 29 217 168 316 223 20 12 52 29 70 39 17 10
60 33 95 52 64 34 77 50 42 50 -23 0 -24 1 -8 35 16 35 38 32 38 -5 0 -36 0
-36 47 -10 36 19 36 22 3 24 -9 1 -15 11 -15 26 0 15 5 24 13 23 6 -2 12 4 12
12 0 13 -4 14 -32 2 -18 -8 -68 -35 -111 -61 -43 -25 -83 -46 -88 -46 -5 0 -9
-4 -9 -9 0 -5 -8 -12 -17 -15 -10 -3 -68 -38 -130 -78 -109 -71 -219 -140
-235 -146 -11 -5 -10 64 2 113 6 27 19 48 42 65 18 14 58 50 89 80 79 79 471
400 564 462 37 25 75 36 75 22z m700 -36 c0 -20 -50 -161 -72 -203 -83 -157
-212 -244 -553 -371 -154 -57 -160 -49 -87 118 11 24 27 63 38 88 30 76 -3 55
379 240 105 51 206 103 225 116 37 26 70 31 70 12z m1140 -33 c6 -8 9 -23 5
-35 -10 -32 -69 -25 -73 9 -6 38 43 57 68 26z m-2080 -20 c0 -14 -4 -25 -10
-25 -5 0 -10 11 -10 25 0 14 5 25 10 25 6 0 10 -11 10 -25z m-1547 -105 c10
-16 14 -30 10 -30 -5 0 -17 14 -26 30 -10 17 -14 30 -10 30 5 0 17 -13 26 -30z
m3112 -20 c3 -5 -16 -51 -42 -102 -35 -68 -69 -115 -126 -175 -67 -70 -94 -89
-180 -133 -84 -42 -127 -56 -246 -80 -79 -16 -147 -27 -152 -24 -15 9 -10 21
37 95 25 39 57 99 71 132 14 34 29 66 34 71 15 16 83 36 103 30 12 -4 16 -2
12 5 -4 6 0 11 9 11 8 0 23 4 33 9 9 5 28 13 42 19 14 5 45 19 70 30 115 50
299 121 317 122 6 0 15 -4 18 -10z m99 -122 c24 -34 20 -75 -8 -93 -58 -38
-109 46 -64 103 16 19 55 14 72 -10z m-3271 -50 c6 -42 -9 -52 -19 -13 -6 23
2 63 10 54 2 -2 6 -21 9 -41z m2447 -119 c0 -11 -17 -55 -37 -97 -53 -111
-141 -196 -264 -255 -52 -25 -105 -48 -119 -52 -34 -9 -118 -40 -223 -82 -60
-25 -85 -39 -78 -46 13 -13 -5 -37 -27 -37 -13 0 -13 3 -4 12 10 10 8 16 -10
30 -20 15 -21 20 -10 35 6 10 20 34 30 53 9 19 22 38 27 42 6 5 6 8 -2 8 -7 0
-16 -8 -22 -17 -5 -10 -13 -15 -16 -11 -11 11 28 69 43 63 7 -2 17 5 22 18 30
75 117 127 481 288 163 71 209 82 209 48z m-2300 -50 c0 -5 -4 -9 -8 -9 -5 0
-9 7 -9 15 0 8 4 12 9 9 4 -3 8 -9 8 -15z m-110 -20 c0 -20 -15 -26 -25 -9 -9
15 3 43 15 35 5 -3 10 -15 10 -26z m917 15 c-3 -3 -12 -4 -19 -1 -8 3 -5 6 6
6 11 1 17 -2 13 -5z m2271 -145 c-2 -76 -6 -94 -18 -94 -17 0 -18 38 -5 143
12 93 26 61 23 -49z m-301 24 c4 -9 0 -28 -8 -42 -8 -14 -28 -51 -44 -81 -45
-84 -102 -158 -143 -185 -50 -33 -333 -126 -404 -132 -78 -8 -81 6 -24 95 25
39 56 92 69 119 14 26 33 55 43 64 17 15 120 48 259 83 28 7 66 20 84 29 19 9
39 17 45 17 6 0 31 11 56 25 54 29 59 30 67 8z m-2530 -99 c-3 -3 -12 -4 -19
-1 -8 3 -5 6 6 6 11 1 17 -2 13 -5z m1915 -100 c-4 -38 -54 -142 -84 -174 -13
-14 -37 -35 -54 -47 -40 -28 -203 -95 -215 -87 -5 3 -9 1 -9 -4 0 -11 -139
-62 -169 -62 -12 0 -21 -4 -21 -10 0 -5 -9 -10 -20 -10 -11 0 -20 -5 -20 -11
0 -5 -8 -9 -17 -8 -10 2 -35 -3 -56 -10 -21 -7 -41 -11 -44 -8 -3 4 -7 25 -8
47 -4 48 -12 61 -25 40 -9 -13 -10 -13 -10 0 0 23 13 36 36 37 17 1 20 -3 16
-30 -6 -41 6 -30 38 36 23 48 32 55 105 92 45 23 141 65 215 94 74 30 150 60
168 68 19 8 31 9 27 4 -3 -6 -13 -11 -21 -11 -8 0 -14 -4 -14 -8 0 -4 -16 -14
-35 -21 -23 -8 -35 -19 -35 -31 0 -11 -9 -24 -20 -30 -24 -13 -26 -30 -5 -30
27 0 15 -17 -25 -35 -39 -18 -53 -35 -27 -35 7 0 17 4 23 9 5 5 27 13 49 16
38 7 39 6 20 -9 -11 -8 -25 -16 -32 -16 -7 0 -27 -6 -45 -14 -18 -8 -46 -19
-61 -25 -15 -6 -26 -15 -22 -20 8 -14 162 49 227 93 31 20 67 54 81 75 26 39
57 106 57 122 0 16 -31 10 -60 -11 -16 -11 -31 -17 -34 -12 -6 10 104 73 119
68 6 -2 9 -16 7 -32z m-2212 -34 c17 -14 11 -12 -23 6 -26 14 -44 30 -41 36 4
5 13 3 23 -6 9 -9 27 -25 41 -36z m60 36 c0 -11 -19 -15 -25 -6 -3 5 1 10 9
10 9 0 16 -2 16 -4z m2066 -61 c-27 -21 -53 -20 -36 0 7 8 22 15 34 15 21 -1
21 -1 2 -15z m-2012 -50 c11 -8 16 -15 10 -15 -5 0 -18 7 -28 15 -11 8 -16 15
-10 15 5 0 18 -7 28 -15z m93 -62 c-6 -5 -67 30 -67 39 0 4 16 -2 35 -14 20
-11 34 -22 32 -25z m78 -43 c22 -14 52 -32 68 -39 15 -8 27 -18 27 -23 0 -4 7
-8 15 -8 8 0 15 7 15 15 0 8 -5 15 -12 15 -6 0 -9 3 -5 6 4 4 118 -55 135 -70
1 -2 -9 -8 -22 -14 -21 -9 -24 -9 -19 3 3 9 -1 15 -9 15 -8 0 -20 6 -26 13 -7
6 -32 13 -56 13 -27 1 -51 8 -64 20 -35 32 -51 44 -59 44 -11 1 -53 36 -53 45
0 7 8 3 65 -35z m2893 -97 c4 -30 -39 -74 -65 -67 -12 3 -31 -4 -49 -19 -40
-33 -66 -40 -90 -22 -29 22 -65 18 -113 -15 -32 -22 -56 -30 -88 -30 -54 0
-55 21 -1 32 19 4 57 19 83 33 26 14 59 25 73 25 14 0 32 10 43 25 12 14 35
27 57 31 20 4 51 13 67 20 44 20 79 14 83 -13z m-1148 -45 c0 -26 -99 -160
-153 -208 -80 -70 -82 -71 -198 -69 -94 1 -272 29 -288 44 -11 12 17 40 45 46
63 14 175 57 165 63 -14 9 -14 43 -1 51 6 4 18 4 26 1 12 -4 13 -10 4 -26 -6
-11 -9 -20 -6 -20 11 0 144 43 171 55 17 7 62 25 100 40 39 15 79 31 90 35 33
14 45 11 45 -12z m-1357 -15 c-7 -2 -21 -2 -30 0 -10 3 -4 5 12 5 17 0 24 -2
18 -5z m774 -7 c-3 -8 1 -17 9 -20 11 -4 14 -19 12 -58 -4 -70 -28 -78 -28 -9
0 50 -12 67 -24 34 -20 -59 -105 -159 -153 -179 -45 -19 -53 -17 -18 4 17 11
36 26 44 36 12 14 12 16 -3 10 -9 -3 -16 -3 -16 2 0 14 33 44 49 44 19 0 57
41 98 105 28 45 40 57 30 31z m-153 -31 c-4 -17 -2 -25 7 -25 8 0 1 -9 -16
-20 -40 -26 -54 -26 -24 1 24 21 24 21 2 15 -30 -10 -29 0 5 29 34 30 34 30
26 0z m234 -67 c-5 -34 -38 -37 -38 -4 0 20 5 26 21 26 15 0 20 -5 17 -22z
m-322 -94 c-8 -8 -19 -14 -25 -14 -18 0 -12 28 7 33 26 5 34 -3 18 -19z
m-1382 -29 c-21 -18 -59 -60 -84 -94 -40 -56 -46 -61 -57 -45 -18 25 -16 41 9
77 28 40 41 51 102 82 63 32 80 21 30 -20z m636 -93 c0 -23 -29 -64 -41 -57
-14 9 -11 37 8 57 20 23 33 23 33 0z m1107 -79 c-3 -10 -5 -4 -5 12 0 17 2 24
5 18 2 -7 2 -21 0 -30z m-1083 -24 c-10 -16 -24 -9 -24 12 0 18 2 19 15 9 8
-7 12 -16 9 -21z m514 -18 c3 -8 -1 -12 -9 -9 -7 2 -15 10 -17 17 -3 8 1 12 9
9 7 -2 15 -10 17 -17z m47 -21 c18 0 105 -52 105 -62 0 -5 -31 9 -69 29 -39
20 -67 41 -64 47 4 6 8 6 11 -2 2 -7 10 -12 17 -12z m-102 -50 c10 0 29 -7 43
-16 19 -13 22 -20 13 -30 -18 -21 -66 -18 -74 5 -4 13 -17 21 -38 23 -24 2
-33 8 -35 25 -4 29 27 35 54 11 11 -10 28 -18 37 -18z m1590 23 c-7 -2 -21 -2
-30 0 -10 3 -4 5 12 5 17 0 24 -2 18 -5z m-2673 -98 c-25 -49 -48 -81 -53 -76
-11 11 24 92 59 139 44 56 40 26 -6 -63z m1410 -1 c73 -48 114 -84 96 -84 -5
0 -194 126 -205 136 -2 2 2 4 10 4 8 0 52 -25 99 -56z m-119 10 c23 -6 30 -41
12 -59 -8 -8 -18 -15 -22 -15 -13 0 -81 67 -81 80 0 10 42 7 91 -6z m269 -114
c0 -5 -7 -10 -15 -10 -8 0 -15 5 -15 10 0 6 7 10 15 10 8 0 15 -4 15 -10z
m-571 -572 c28 -6 51 -15 51 -20 0 -12 -47 -21 -76 -14 -35 9 -84 -35 -64 -59
7 -8 17 -15 23 -15 5 0 34 -12 64 -26 58 -29 66 -49 33 -79 -11 -10 -24 -32
-28 -49 -12 -44 -49 -47 -92 -6 -34 32 -34 53 0 32 11 -7 26 -12 34 -12 14 0
56 45 56 60 0 3 -29 21 -63 39 -57 29 -66 32 -85 20 -20 -12 -26 -10 -67 31
-45 44 -45 44 -73 28 -23 -15 -27 -23 -26 -60 2 -68 18 -98 53 -98 32 0 48 24
30 47 -16 19 -4 28 22 17 16 -7 22 -20 23 -50 l2 -41 -43 5 c-28 3 -43 1 -43
-6 0 -7 -12 -9 -32 -5 -42 7 -52 17 -35 32 12 9 13 20 4 54 -5 23 -16 49 -23
58 -8 8 -14 30 -14 49 0 27 2 31 15 20 11 -9 19 -8 39 7 14 10 26 21 26 26 1
29 120 -51 120 -82 0 -7 11 2 23 21 37 53 69 88 83 88 7 0 35 -5 63 -12z m629
-5 c-2 -10 -20 -29 -41 -42 -25 -17 -37 -32 -37 -48 0 -27 26 -41 43 -24 16
16 47 14 47 -4 0 -8 -16 -21 -35 -29 -34 -14 -35 -17 -35 -67 l0 -52 -25 23
c-14 13 -25 34 -25 46 0 13 -4 26 -10 29 -5 3 -10 18 -10 32 0 21 -2 24 -15
13 -8 -7 -15 -19 -15 -26 0 -8 -6 -14 -12 -14 -7 0 -42 -29 -77 -65 -66 -68
-99 -80 -93 -35 6 39 -19 140 -34 140 -15 0 -8 62 9 69 5 2 24 16 42 32 35 31
55 37 55 17 0 -7 19 -33 42 -57 36 -38 43 -42 64 -32 18 8 24 19 24 41 0 27 3
30 20 25 12 -4 33 3 57 19 44 30 66 33 61 9z m342 2 c0 -17 -36 -52 -62 -61
-23 -7 -24 -52 -2 -61 9 -3 25 -1 35 5 25 16 39 15 39 -1 0 -7 -16 -21 -35
-30 -33 -16 -35 -19 -35 -67 0 -58 -10 -64 -32 -17 -31 64 -37 83 -39 122 -3
68 0 85 15 79 7 -3 30 6 51 20 43 29 65 33 65 11z m690 -15 c44 -22 92 -40
105 -40 8 0 15 -5 15 -11 0 -13 -52 -103 -62 -107 -4 -2 -8 -14 -8 -27 0 -29
-59 -94 -69 -76 -4 6 -15 57 -25 114 -9 56 -22 110 -27 119 -19 36 -11 50 23
43 18 -4 39 -11 48 -15z m308 -36 c35 -43 49 -54 72 -54 17 0 30 -4 30 -10 0
-5 -4 -10 -10 -10 -5 0 -12 -11 -16 -25 -3 -14 -11 -25 -18 -25 -6 0 -40 -27
-75 -60 -35 -33 -69 -60 -76 -60 -20 0 -24 11 -12 31 9 15 9 23 -1 39 -6 11
-12 38 -12 60 0 33 -3 40 -20 40 -11 0 -20 2 -20 4 0 15 32 76 41 76 5 0 21
11 35 25 14 14 28 25 32 24 4 0 26 -25 50 -55z m303 44 c1 -7 1 -17 0 -21 -1
-4 5 -20 13 -35 20 -39 45 -171 34 -178 -9 -6 -36 22 -39 41 -10 72 -22 115
-30 115 -9 0 -30 -41 -43 -83 -9 -27 -38 -17 -47 16 -8 30 -27 57 -39 57 -5 0
-2 -24 5 -52 21 -85 27 -135 17 -142 -10 -6 -31 72 -47 169 -4 22 -12 55 -18
72 -18 54 1 50 58 -11 l53 -58 31 61 c30 58 50 76 52 49z m-3015 -12 c3 -7 -6
-51 -19 -97 -24 -82 -24 -84 -6 -105 25 -26 24 -37 -1 -29 -12 4 -27 1 -35 -5
-19 -16 -35 -4 -35 25 0 22 -41 65 -61 65 -15 0 -49 -63 -49 -89 0 -23 -1 -23
-19 -7 -10 10 -21 32 -24 49 -3 18 -12 50 -20 72 -24 66 -29 97 -16 93 7 -2
21 -29 32 -59 11 -29 22 -56 24 -58 7 -9 33 24 29 36 -4 8 4 17 20 23 36 14
44 12 44 -8 0 -17 32 -52 48 -52 5 0 16 26 26 58 28 87 35 102 46 102 6 0 13
-6 16 -14z m69 -45 c3 -20 13 -69 22 -109 13 -56 14 -75 5 -84 -17 -17 -39 8
-47 52 -28 164 -28 213 1 190 7 -7 16 -28 19 -49z m130 -18 c43 -83 60 -97 70
-61 14 51 39 98 52 98 16 0 17 -14 1 -43 -15 -28 -30 -91 -33 -141 -2 -36 -5
-39 -34 -42 -31 -4 -32 -3 -26 25 4 20 0 41 -14 68 -39 74 -42 74 -39 -11 2
-53 -1 -80 -9 -83 -16 -6 -32 52 -33 127 -4 170 5 178 65 63z m1580 67 c3 -5
16 -10 28 -10 12 -1 39 -7 59 -14 33 -12 40 -11 69 6 21 13 40 17 59 13 16 -3
31 -2 35 4 7 13 55 15 55 3 0 -5 -18 -16 -41 -25 -37 -15 -40 -19 -37 -49 3
-31 5 -33 40 -33 51 0 57 -12 15 -30 -31 -13 -37 -20 -37 -45 0 -27 3 -29 43
-32 l42 -3 -36 -17 c-21 -9 -42 -24 -49 -35 -8 -13 -13 -14 -16 -5 -3 6 -12
12 -19 12 -11 0 -15 23 -17 101 -3 86 -6 104 -21 113 -14 9 -20 7 -28 -6 -6
-10 -16 -18 -23 -18 -7 0 -20 -8 -29 -18 -15 -17 -13 -21 33 -66 28 -28 50
-58 50 -70 0 -16 -12 -9 -60 39 -33 32 -62 56 -66 52 -4 -3 0 -33 9 -67 11
-46 12 -60 2 -60 -14 0 -35 42 -35 70 0 10 -4 21 -9 24 -5 3 -12 23 -16 43 -4
21 -10 43 -15 48 -4 6 -10 27 -14 48 -5 29 -4 37 8 37 8 0 18 -4 21 -10z m495
1 c0 -5 -13 -11 -28 -14 -16 -3 -38 -14 -51 -24 -20 -17 -21 -21 -10 -46 10
-23 18 -27 45 -25 49 3 52 -10 8 -28 -49 -20 -46 -17 -38 -48 5 -22 12 -26 40
-26 19 0 34 -4 34 -10 0 -5 -6 -10 -14 -10 -7 0 -26 -10 -41 -22 -44 -34 -56
-17 -60 82 -2 47 -8 98 -14 113 -14 36 -7 47 29 47 16 0 32 5 35 10 8 12 65
13 65 1z"/>
<path d="M6833 9743 c-3 -10 -31 -44 -62 -76 -46 -47 -53 -59 -41 -67 12 -8 9
-14 -17 -36 -18 -14 -33 -34 -33 -44 0 -11 -21 -42 -46 -71 -25 -28 -42 -54
-39 -58 4 -3 17 7 28 22 36 46 177 187 187 187 22 0 8 -32 -22 -50 -39 -23
-148 -143 -148 -162 0 -8 -5 -19 -12 -26 -9 -9 -7 -12 10 -12 12 0 35 14 52
30 36 35 44 37 35 10 -4 -13 -1 -22 10 -26 12 -5 14 -14 9 -43 -7 -33 -6 -35
10 -22 15 13 67 112 80 154 3 10 10 16 15 13 20 -13 34 29 39 113 6 121 -3
181 -29 181 -11 0 -22 -8 -26 -17z m-3 -239 c0 -8 -5 -12 -10 -9 -6 4 -8 11
-5 16 9 14 15 11 15 -7z m-30 -48 c0 -16 -30 -50 -37 -42 -5 4 26 56 33 56 2
0 4 -6 4 -14z"/>
<path d="M6542 9387 c-12 -13 -22 -27 -22 -31 0 -4 11 5 25 20 14 15 25 29 25
30 0 8 -7 3 -28 -19z"/>
<path d="M4465 9310 c-30 -4 -35 -7 -22 -13 10 -4 36 -7 57 -7 21 0 42 -4 45
-10 9 -14 62 -13 67 2 3 8 99 13 356 16 194 3 350 7 347 10 -7 7 -798 9 -850
2z"/>
<path d="M5700 9259 c-80 -5 -164 -11 -187 -14 -77 -11 -45 -25 55 -25 53 0
149 -4 212 -9 63 -6 202 -11 308 -13 l193 -3 19 25 c11 14 20 27 20 30 0 3
-84 1 -187 -3 -134 -6 -199 -5 -227 3 -21 6 -43 13 -50 14 -6 2 -76 -1 -156
-5z"/>
<path d="M4995 9251 c-22 -5 -26 -9 -17 -15 15 -9 153 0 199 14 34 10 -135 11
-182 1z"/>
<path d="M7215 9250 c4 -6 11 -8 16 -5 14 9 11 15 -7 15 -8 0 -12 -5 -9 -10z"/>
<path d="M6915 9211 c-3 -5 -1 -12 4 -15 14 -9 131 6 125 15 -7 12 -121 11
-129 0z"/>
<path d="M7197 9173 c-12 -11 -8 -23 8 -23 8 0 15 7 15 15 0 16 -12 20 -23 8z"/>
<path d="M7034 9110 c-21 -17 -75 -57 -119 -88 -150 -106 -194 -145 -194 -172
-1 -22 8 -16 71 48 67 68 108 90 108 58 0 -20 -140 -161 -180 -181 -41 -20
-80 -54 -80 -69 0 -6 5 -5 12 2 17 17 31 15 24 -3 -4 -13 -2 -13 14 -5 47 25
68 -1 29 -36 -12 -10 -44 -45 -71 -76 -40 -47 -47 -59 -34 -64 24 -9 109 60
122 99 6 19 27 43 52 60 22 15 53 42 69 59 15 17 38 42 51 55 12 13 22 29 22
35 0 6 10 8 23 5 34 -9 83 72 97 160 6 37 15 83 21 101 6 18 9 35 6 38 -2 2
-22 -9 -43 -26z"/>
<path d="M7191 9033 l1 -98 13 75 c18 101 18 120 0 120 -12 0 -15 -17 -14 -97z"/>
<path d="M5401 8724 c1 -161 4 -253 9 -229 8 40 3 486 -6 494 -2 2 -3 -117 -3
-265z"/>
<path d="M6515 8570 c-3 -5 -1 -10 4 -10 6 0 11 5 11 10 0 6 -2 10 -4 10 -3 0
-8 -4 -11 -10z"/>
<path d="M7015 7961 c-34 -27 -69 -60 -78 -75 -10 -14 -25 -26 -34 -26 -9 0
-36 -17 -61 -37 -25 -21 -53 -42 -63 -48 -20 -12 -86 -73 -111 -104 -31 -37
-6 -22 49 30 100 94 65 43 -47 -69 -103 -103 -125 -132 -100 -132 12 0 142
129 182 180 15 19 27 29 28 23 0 -7 -18 -32 -39 -55 -111 -121 -130 -148 -98
-134 6 2 29 10 50 17 20 7 37 19 37 27 0 8 40 55 89 106 49 50 106 109 126
131 36 39 36 39 18 7 -10 -18 -57 -74 -105 -125 -48 -50 -85 -94 -82 -96 5 -6
102 82 103 94 1 15 40 37 52 29 18 -11 77 89 123 208 13 34 27 71 31 81 11 27
-6 20 -70 -32z"/>
<path d="M7281 7785 c1 -114 3 -113 29 14 11 50 10 56 -9 75 l-21 20 1 -109z"/>
<path d="M7186 7738 c-7 -70 -5 -118 6 -118 4 0 8 38 8 85 0 47 -2 85 -4 85
-3 0 -7 -24 -10 -52z"/>
<path d="M6888 7652 c-8 -21 -143 -133 -167 -138 -72 -16 -102 -45 -53 -52 29
-4 87 28 148 82 50 44 102 116 84 116 -4 0 -10 -4 -12 -8z"/>
<path d="M7058 7392 c-70 -38 -83 -52 -48 -52 39 0 17 -41 -37 -69 -27 -14
-29 -9 -7 14 9 9 14 19 10 22 -8 8 -146 -99 -140 -109 7 -11 34 -10 34 1 0 5
7 11 15 14 11 5 14 -1 12 -23 -1 -21 -9 -33 -27 -39 -34 -14 -95 -69 -86 -78
4 -4 11 -1 16 7 14 22 23 4 10 -20 -10 -19 -10 -20 7 -11 10 6 28 21 41 35 24
25 52 25 52 0 0 -21 16 -17 38 10 10 14 33 33 51 43 25 14 41 38 72 108 52
117 70 168 61 176 -4 4 -37 -9 -74 -29z m-144 -256 c-10 -8 -21 -12 -24 -9 -3
2 4 11 14 19 11 7 22 12 25 9 2 -3 -4 -12 -15 -19z"/>
<path d="M7137 7326 c-5 -21 -6 -41 -3 -44 12 -11 17 7 14 44 l-3 39 -8 -39z"/>
<path d="M7213 7305 c0 -22 2 -30 4 -17 2 12 2 30 0 40 -3 9 -5 -1 -4 -23z"/>
<path d="M6957 7088 c-16 -17 -34 -27 -42 -24 -8 3 -27 -1 -42 -9 -15 -8 -34
-15 -40 -15 -7 0 -13 -4 -13 -10 0 -5 9 -10 19 -10 11 0 23 -4 26 -10 13 -22
44 -8 89 40 43 45 57 71 39 69 -5 0 -21 -14 -36 -31z"/>
<path d="M6742 7004 c-12 -8 -22 -21 -21 -27 0 -9 2 -9 6 1 2 6 10 12 18 12 7
0 18 7 25 15 16 20 0 19 -28 -1z"/>
<path d="M7178 6872 c-2 -53 -3 -99 -2 -101 2 -1 7 0 13 4 13 8 15 181 2 189
-5 4 -11 -37 -13 -92z"/>
<path d="M6710 6665 c-19 -19 -31 -35 -28 -35 16 0 70 34 78 51 18 32 -12 23
-50 -16z"/>
<path d="M7183 6669 c-14 -14 -15 -59 -3 -99 11 -38 22 -4 18 59 -2 42 -5 50
-15 40z"/>
<path d="M7142 6212 c-1 -200 1 -301 8 -297 12 7 12 370 1 510 -6 64 -8 2 -9
-213z"/>
<path d="M7227 6503 c-11 -10 -8 -141 3 -148 6 -4 10 23 10 74 0 81 -1 87 -13
74z"/>
<path d="M7209 6165 c-4 -115 -2 -136 12 -114 10 17 10 151 -1 194 -5 20 -8
-6 -11 -80z"/>
<path d="M7202 5941 c-11 -36 -17 -211 -7 -211 2 0 16 5 30 12 22 10 25 18 25
58 0 39 -4 49 -20 53 -18 5 -19 11 -14 66 8 70 2 78 -14 22z"/>
<path d="M7130 5734 c-7 -19 -9 -38 -6 -42 10 -9 34 20 41 51 11 42 -21 35
-35 -9z"/>
<path d="M7206 5705 c-10 -7 -16 -18 -15 -24 2 -6 18 0 34 14 32 26 15 36 -19
10z"/>
<path d="M7100 5550 c-13 -8 -12 -10 3 -10 9 0 17 5 17 10 0 12 -1 12 -20 0z"/>
<path d="M6955 5467 c-140 -80 -165 -97 -164 -111 0 -7 2 -6 6 2 2 6 12 12 22
12 9 0 26 7 37 15 12 7 48 28 80 46 83 45 162 99 144 98 -8 0 -64 -28 -125
-62z"/>
<path d="M5755 4845 c-71 -36 -148 -76 -170 -90 -22 -14 -55 -32 -72 -39 -22
-10 -33 -22 -33 -35 0 -33 25 -25 104 29 40 28 76 50 80 50 11 0 150 83 154
92 2 5 9 8 15 8 7 0 26 11 42 25 47 38 20 29 -120 -40z"/>
<path d="M5156 4755 c10 -8 24 -15 31 -15 6 0 13 -4 15 -8 5 -14 75 -52 81
-45 15 14 5 23 -55 53 -68 32 -106 41 -72 15z"/>
<path d="M5420 4729 c0 -5 5 -7 10 -4 6 3 10 8 10 11 0 2 -4 4 -10 4 -5 0 -10
-5 -10 -11z"/>
<path d="M5305 4669 c-8 -12 14 -31 30 -26 6 2 10 10 10 18 0 17 -31 24 -40 8z"/>
<path d="M5400 4625 c0 -17 2 -18 24 -9 23 9 20 24 -4 24 -11 0 -20 -7 -20
-15z"/>
<path d="M3628 8970 c-13 -51 -30 -257 -26 -320 5 -90 14 -48 28 130 12 146
11 243 -2 190z"/>
<path d="M3676 8876 c-11 -43 -25 -355 -27 -606 -4 -341 -1 -423 12 -414 7 4
9 41 6 113 -2 58 -1 178 4 266 4 88 11 232 14 320 3 88 8 199 11 246 3 52 1
89 -4 93 -6 3 -13 -5 -16 -18z"/>
<path d="M3584 6855 c0 -71 1 -99 3 -62 2 37 2 96 0 130 -2 34 -3 4 -3 -68z"/>
<path d="M3561 6495 c1 -40 1 -40 11 -12 7 21 7 32 -1 40 -8 8 -11 0 -10 -28z"/>
<path d="M3828 5710 c12 -12 28 -20 35 -17 7 2 -4 12 -23 22 l-35 17 23 -22z"/>
<path d="M5370 5671 c-25 -9 -47 -19 -50 -22 -3 -4 -39 -24 -80 -45 -41 -21
-77 -41 -80 -44 -3 -3 -17 -11 -32 -17 -15 -7 -34 -24 -44 -37 -9 -14 -44 -40
-78 -57 -33 -17 -68 -37 -76 -45 -12 -12 -12 -14 5 -14 11 0 36 4 55 10 33 9
34 8 15 -6 -11 -9 -37 -24 -58 -34 -32 -14 -35 -19 -23 -29 12 -10 26 -8 70
13 30 14 59 26 64 26 13 0 161 79 209 112 41 27 158 180 151 197 -2 4 -23 1
-48 -8z m-135 -101 c-10 -16 -95 -59 -100 -50 -5 8 58 50 76 50 5 0 9 5 9 11
0 5 5 7 10 4 6 -4 8 -10 5 -15z m-5 -63 c0 -16 -51 -47 -77 -47 -14 1 -11 7
17 30 36 32 60 38 60 17z"/>
<path d="M3946 5393 c-15 -15 -3 -32 34 -52 72 -37 98 -21 33 20 -21 13 -43
27 -49 31 -6 4 -14 5 -18 1z"/>
<path d="M4070 5300 c0 -5 7 -10 16 -10 8 0 12 5 9 10 -3 6 -10 10 -16 10 -5
0 -9 -4 -9 -10z"/>
<path d="M4310 5150 c0 -5 9 -14 20 -20 11 -6 20 -7 20 -3 0 5 -9 14 -20 21
-11 7 -20 8 -20 2z"/>
<path d="M6038 8862 c-31 -33 -62 -92 -77 -148 -6 -23 -18 -47 -26 -54 -8 -7
-15 -19 -15 -26 0 -20 -40 -81 -88 -134 -47 -51 -88 -120 -73 -120 6 0 11 5
11 10 0 6 7 10 15 10 8 0 27 14 42 31 48 55 66 70 76 60 5 -5 3 -17 -4 -30
-10 -16 -11 -23 -2 -32 9 -9 25 -1 67 34 30 26 59 47 64 47 27 0 41 68 45 218
2 84 1 154 -3 157 -4 2 -18 -8 -32 -23z"/>
<path d="M5817 8532 c-40 -41 -53 -80 -16 -46 27 24 62 74 57 79 -2 3 -21 -12
-41 -33z"/>
<path d="M7070 8535 c-142 -94 -247 -175 -260 -202 -8 -15 -24 -41 -35 -58
-24 -34 -37 -65 -28 -65 4 0 20 12 35 27 44 42 33 6 -13 -44 -98 -106 23 -26
154 102 44 42 81 75 83 72 11 -10 -35 -67 -99 -122 -101 -88 -167 -150 -167
-158 0 -3 21 3 46 14 55 23 66 18 34 -16 -46 -49 -2 -24 64 37 53 48 66 66 62
83 -4 16 4 29 37 57 23 19 51 53 63 74 11 21 36 68 56 104 19 36 37 74 40 85
3 11 9 28 13 38 11 27 -14 19 -85 -28z m10 -95 c0 -5 -4 -10 -10 -10 -5 0 -10
5 -10 10 0 6 5 10 10 10 6 0 10 -4 10 -10z m-142 -87 c-36 -50 -68 -68 -68
-38 0 20 67 85 88 85 9 0 2 -16 -20 -47z"/>
<path d="M6725 8269 c-11 -17 1 -21 15 -4 8 9 8 15 2 15 -6 0 -14 -5 -17 -11z"/>
<path d="M6178 8424 c-32 -32 -58 -66 -58 -76 0 -10 -18 -43 -40 -72 -22 -29
-40 -58 -40 -64 0 -6 -13 -26 -28 -44 -50 -58 -89 -122 -96 -158 -6 -32 -5
-33 8 -15 22 31 30 10 10 -24 -27 -46 -5 -62 29 -22 17 21 35 31 54 31 35 1
86 62 143 172 56 107 82 195 78 269 l-3 60 -57 -57z m-118 -297 c0 -14 -20
-37 -32 -37 -10 0 -11 34 -1 43 11 12 33 8 33 -6z"/>
<path d="M6031 8269 c-12 -16 -21 -37 -19 -46 2 -10 12 0 27 26 28 51 23 63
-8 20z"/>
<path d="M5332 8165 c-28 -31 -52 -60 -52 -66 0 -6 -14 -29 -31 -50 -17 -21
-29 -45 -26 -51 2 -7 0 -21 -5 -30 -5 -11 -5 -18 1 -18 8 0 28 21 74 81 9 13
17 20 17 15 0 -10 -46 -92 -65 -113 -96 -112 -107 -130 -97 -167 l7 -27 22 25
c29 33 43 61 43 84 0 27 124 148 129 126 4 -21 -23 -69 -112 -202 -104 -155
-82 -147 70 25 81 92 93 123 93 238 l0 92 -26 -5 c-22 -4 -25 -2 -22 19 2 15
12 25 28 29 16 4 26 14 28 28 6 37 -20 26 -76 -33z"/>
<path d="M6233 7943 c-51 -52 -93 -97 -93 -100 0 -3 -21 -28 -46 -55 -52 -56
-52 -73 0 -33 40 30 63 26 44 -8 -6 -12 -54 -63 -107 -114 -53 -50 -92 -95
-88 -99 10 -10 117 65 117 82 0 15 60 64 78 64 14 0 16 -26 3 -34 -5 -3 -33
-34 -62 -67 -48 -56 -50 -60 -22 -46 39 20 104 93 158 177 61 95 147 333 119
329 -5 -1 -51 -44 -101 -96z"/>
<path d="M6025 7720 c-3 -5 -1 -10 4 -10 6 0 11 5 11 10 0 6 -2 10 -4 10 -3 0
-8 -4 -11 -10z"/>
<path d="M5362 7607 c-45 -45 -90 -94 -100 -109 -9 -14 -42 -62 -73 -105 -50
-71 -109 -168 -109 -180 0 -3 7 0 15 7 8 7 15 19 15 26 0 8 4 14 9 14 5 0 15
15 22 32 15 37 222 254 227 239 5 -15 -65 -96 -117 -136 -24 -19 -49 -45 -55
-57 -7 -13 -25 -44 -40 -70 -15 -27 -23 -48 -18 -48 19 0 181 183 192 216 11
32 33 49 51 38 20 -12 6 -39 -51 -104 -33 -37 -60 -72 -60 -76 0 -5 4 -4 8 1
15 21 81 65 99 65 10 1 35 22 56 48 l37 47 0 117 c0 88 -3 118 -12 118 -7 0
-50 -37 -96 -83z"/>
<path d="M5960 6959 c0 -5 5 -7 10 -4 6 3 10 8 10 11 0 2 -4 4 -10 4 -5 0 -10
-5 -10 -11z"/>
<path d="M5412 7211 c-33 -38 -74 -95 -89 -127 -15 -32 -31 -63 -36 -69 -4 -5
-26 -39 -49 -75 -24 -36 -50 -72 -59 -80 -25 -22 -53 -70 -41 -70 11 0 142
131 166 166 7 10 28 46 46 79 40 74 54 90 48 53 -3 -17 0 -29 8 -32 23 -9 16
-27 -8 -21 -18 4 -26 0 -35 -22 -17 -36 -17 -38 10 -39 18 -1 28 9 48 50 31
62 46 108 54 161 4 22 8 47 10 55 3 8 1 21 -3 27 -6 9 -27 -8 -70 -56z"/>
<path d="M5346 6925 c-9 -26 -7 -32 5 -12 6 10 9 21 6 23 -2 3 -7 -2 -11 -11z"/>
<path d="M5288 6900 c-26 -24 -22 -35 4 -10 12 11 20 22 17 24 -2 2 -12 -4
-21 -14z"/>
<path d="M5311 6873 c-7 -8 -11 -16 -8 -19 2 -2 10 2 17 11 17 20 9 27 -9 8z"/>
<path d="M4168 7213 c7 -3 16 -2 19 1 4 3 -2 6 -13 5 -11 0 -14 -3 -6 -6z"/>
<path d="M6166 6900 c-21 -22 -35 -40 -30 -40 10 1 84 67 84 75 0 13 -18 1
-54 -35z"/>
<path d="M6064 6698 c-11 -13 -44 -43 -72 -67 -49 -41 -63 -61 -44 -61 14 0
161 138 155 144 -11 10 -19 7 -39 -16z"/>
<path d="M5558 6917 c-26 -23 -36 -40 -36 -60 0 -22 -14 -44 -63 -93 -35 -35
-68 -64 -74 -63 -5 0 -4 3 3 6 21 8 13 21 -12 19 -20 -1 -22 -4 -13 -15 10
-12 9 -14 -6 -8 -11 4 -16 3 -12 -4 8 -12 -18 -54 -54 -86 -20 -17 -21 -21 -7
-16 19 6 19 5 3 -17 -39 -56 -12 -48 53 15 39 37 73 65 76 62 8 -7 -16 -50
-32 -60 -8 -4 -18 -16 -23 -26 -9 -17 -7 -17 32 2 90 43 118 84 179 259 38
110 35 127 -14 85z"/>
<path d="M5411 6786 c-22 -24 -22 -46 1 -46 6 0 5 7 -3 17 -10 12 -11 15 -1 9
15 -9 42 10 42 30 0 21 -14 17 -39 -10z"/>
<path d="M5170 6445 c-9 -10 -9 -15 -1 -15 6 0 11 4 11 9 0 5 8 12 18 14 14 4
14 5 1 6 -9 0 -22 -6 -29 -14z"/>
<path d="M5119 6398 c-12 -23 -12 -23 10 -4 23 21 26 26 11 26 -5 0 -15 -10
-21 -22z"/>
<path d="M5498 6432 c-108 -91 -240 -197 -249 -200 -5 -2 -9 -18 -9 -35 0 -25
-8 -38 -36 -57 -35 -25 -81 -62 -59 -48 7 4 15 5 18 1 4 -3 7 -2 7 4 0 6 9 13
19 16 14 3 18 1 14 -9 -3 -8 -10 -14 -15 -14 -6 0 -8 -6 -5 -14 3 -8 1 -17 -6
-19 -7 -2 -9 -7 -6 -11 3 -3 19 0 35 9 16 8 35 15 42 15 6 0 12 4 12 9 0 5 13
12 30 16 41 9 155 100 173 138 27 57 64 141 77 177 7 19 17 40 22 47 5 6 5 14
1 16 -5 3 -34 -15 -65 -41z m-68 -209 c0 -13 -98 -75 -110 -71 -7 2 12 20 41
40 55 38 69 44 69 31z"/>
<path d="M5485 6049 c-22 -12 -51 -29 -65 -39 -14 -9 -52 -32 -85 -50 -33 -18
-77 -48 -98 -66 -20 -19 -42 -34 -47 -34 -6 0 -10 -9 -10 -19 0 -11 -6 -22
-12 -24 -10 -4 -10 -6 -1 -6 7 -1 43 19 80 44 37 25 71 45 76 45 13 0 -11 -28
-37 -43 -74 -42 -86 -52 -80 -72 3 -11 12 -26 19 -34 14 -15 12 -16 133 41 51
24 91 75 137 173 55 118 55 118 -10 84z m-205 -229 c0 -5 -8 -10 -17 -10 -15
0 -16 2 -3 10 19 12 20 12 20 0z"/>
<path d="M5125 5765 c-16 -14 -25 -25 -18 -25 16 0 73 33 73 43 0 14 -25 6
-55 -18z"/>
<path d="M5154 5746 c-39 -21 -55 -39 -46 -48 11 -11 92 36 92 52 0 13 -19 11
-46 -4z"/>
<path d="M6190 6410 c-30 -16 -61 -30 -67 -30 -7 0 -13 -7 -13 -15 0 -18 21
-20 38 -3 9 9 12 9 12 -2 0 -15 -65 -60 -175 -120 -33 -19 -62 -37 -65 -41 -3
-4 -17 -10 -32 -14 -14 -4 -37 -18 -50 -32 -25 -29 -27 -28 50 -5 26 9 32 8
32 -4 0 -8 -4 -14 -10 -14 -19 0 -10 -18 12 -24 24 -6 119 32 149 60 11 10 19
12 24 5 11 -19 22 -12 64 44 46 61 81 134 81 170 0 13 5 27 10 30 12 7 14 25
3 24 -5 0 -33 -13 -63 -29z"/>
<path d="M5845 6210 c-10 -11 -16 -22 -13 -25 3 -3 13 4 23 15 10 11 16 22 13
25 -3 3 -13 -4 -23 -15z"/>
<path d="M6011 6109 c-18 -11 -31 -23 -28 -26 6 -5 77 34 77 43 0 9 -16 3 -49
-17z"/>
<path d="M6870 6284 c-16 -6 -114 -50 -142 -65 -10 -5 -24 -9 -31 -9 -7 0 -24
-10 -37 -22 -31 -29 -91 -79 -119 -98 -25 -17 -27 -30 -6 -30 8 0 15 4 15 9 0
10 50 25 57 17 3 -3 -18 -20 -47 -38 -46 -29 -50 -33 -30 -36 12 -2 26 2 31 9
4 8 11 10 15 7 9 -10 -22 -38 -43 -38 -10 0 -27 -7 -37 -15 -17 -13 -18 -15
-3 -15 9 0 17 -6 17 -14 0 -12 7 -12 35 -5 19 6 40 7 46 4 27 -17 185 133 242
230 22 39 47 80 55 93 14 22 11 25 -18 16z m-52 -97 c-21 -20 -75 -57 -84 -57
-5 0 14 20 41 46 27 25 51 40 53 35 2 -6 -2 -17 -10 -24z"/>
<path d="M6495 6100 c-3 -5 -2 -10 4 -10 5 0 13 5 16 10 3 6 2 10 -4 10 -5 0
-13 -4 -16 -10z"/>
<path d="M6124 5996 c-17 -6 -38 -19 -48 -28 -10 -10 -28 -21 -41 -24 -13 -3
-26 -12 -29 -20 -3 -8 -16 -14 -30 -14 -13 0 -42 -15 -64 -33 -22 -19 -54 -40
-71 -47 -32 -13 -43 -40 -16 -40 8 0 15 5 15 10 0 6 4 10 9 10 5 0 41 18 80
40 71 40 91 47 91 32 0 -5 -24 -21 -53 -35 -52 -25 -90 -57 -69 -57 6 0 12 6
15 13 4 9 7 9 18 0 17 -17 -24 -53 -109 -95 -113 -56 -77 -55 53 2 31 13 51
17 53 11 6 -19 23 -12 87 39 72 57 154 180 155 233 0 19 -2 19 -46 3z"/>
<path d="M5830 5761 c0 -5 5 -13 10 -16 6 -3 10 -2 10 4 0 5 -4 13 -10 16 -5
3 -10 2 -10 -4z"/>
<path d="M5905 5700 c-3 -5 -1 -10 4 -10 6 0 11 5 11 10 0 6 -2 10 -4 10 -3 0
-8 -4 -11 -10z"/>
<path d="M6620 5813 c-38 -12 -60 -28 -60 -42 0 -9 -14 -24 -31 -33 -35 -20
-49 -23 -49 -8 0 6 8 10 17 10 9 0 13 3 10 7 -12 11 -86 -28 -80 -43 3 -8 -1
-14 -11 -14 -9 0 -16 -4 -16 -9 0 -6 28 -8 62 -6 41 3 57 1 48 -5 -8 -6 -27
-10 -42 -10 -15 0 -49 -11 -75 -26 -60 -32 -72 -42 -55 -53 8 -5 3 -14 -18
-29 -16 -12 -35 -22 -42 -22 -8 0 -7 -4 4 -10 11 -7 32 -7 57 -1 23 5 39 5 36
1 -24 -38 96 12 136 56 51 58 118 162 139 218 10 27 4 31 -30 19z"/>
<path d="M5795 5254 c-33 -13 -73 -33 -89 -45 -16 -12 -45 -23 -65 -24 -77 -5
-74 -4 -61 -20 10 -12 7 -17 -15 -27 l-28 -13 44 -11 c34 -9 38 -12 17 -13
-29 -1 -47 -19 -26 -25 7 -3 35 -7 61 -9 40 -4 52 -1 68 17 11 11 15 22 9 24
-21 7 -9 24 13 18 22 -5 39 12 137 131 18 23 -6 22 -65 -3z"/>
<path d="M5518 5153 c7 -3 16 -2 19 1 4 3 -2 6 -13 5 -11 0 -14 -3 -6 -6z"/>
<path d="M5020 3943 c-15 -20 -19 -35 -15 -57 9 -44 28 -96 35 -96 3 0 23 17
44 39 l37 38 -31 52 c-18 28 -36 51 -40 51 -5 0 -18 -12 -30 -27z"/>
<path d="M6330 3954 c-1 -25 35 -164 42 -164 4 0 8 5 8 11 0 7 14 34 30 61 17
26 30 52 30 56 0 16 -110 51 -110 36z"/>
<path d="M6596 3948 c-9 -12 -16 -31 -16 -41 0 -38 23 -107 35 -107 15 0 75
57 75 70 0 18 -55 100 -67 100 -6 0 -19 -10 -27 -22z"/>
<path d="M5765 3928 c10 -30 11 -32 30 -24 24 9 14 40 -14 44 -20 3 -22 1 -16
-20z"/>
</g>
</svg>
